<mxfile host="app.diagrams.net" modified="2022-01-03T08:18:29.081Z" agent="5.0 (Windows NT 10.0; Win64; x64) AppleWebKit/537.36 (KHTML, like Gecko) Chrome/96.0.4664.110 Safari/537.36 OPR/82.0.4227.50" etag="SHN4ZEJRlTSgTTXFZdgK" version="16.1.2" type="github" pages="3">
  <diagram id="jfayI0sGxPnLUz0nDXjb" name="Page-1">
    <mxGraphModel dx="1847" dy="588" grid="1" gridSize="10" guides="1" tooltips="1" connect="1" arrows="1" fold="1" page="1" pageScale="1" pageWidth="850" pageHeight="1100" math="0" shadow="0">
      <root>
        <mxCell id="0" />
        <mxCell id="1" parent="0" />
        <mxCell id="ZYYtO3zmWTI-Gvjil7P2-25" value="" style="whiteSpace=wrap;html=1;aspect=fixed;strokeColor=#A3A3A3;fillColor=default;" parent="1" vertex="1">
          <mxGeometry x="-75" y="220" width="925" height="925" as="geometry" />
        </mxCell>
        <mxCell id="ZYYtO3zmWTI-Gvjil7P2-15" style="edgeStyle=orthogonalEdgeStyle;rounded=0;orthogonalLoop=1;jettySize=auto;html=1;" parent="1" source="ZYYtO3zmWTI-Gvjil7P2-2" target="ZYYtO3zmWTI-Gvjil7P2-3" edge="1">
          <mxGeometry relative="1" as="geometry" />
        </mxCell>
        <mxCell id="ZYYtO3zmWTI-Gvjil7P2-2" value="Mulai" style="strokeWidth=2;html=1;shape=mxgraph.flowchart.start_1;whiteSpace=wrap;fillColor=#e1d5e7;strokeColor=#9673a6;" parent="1" vertex="1">
          <mxGeometry x="325" y="260" width="100" height="60" as="geometry" />
        </mxCell>
        <mxCell id="ZYYtO3zmWTI-Gvjil7P2-14" style="edgeStyle=orthogonalEdgeStyle;rounded=0;orthogonalLoop=1;jettySize=auto;html=1;" parent="1" source="ZYYtO3zmWTI-Gvjil7P2-3" target="ZYYtO3zmWTI-Gvjil7P2-4" edge="1">
          <mxGeometry relative="1" as="geometry" />
        </mxCell>
        <mxCell id="ZYYtO3zmWTI-Gvjil7P2-3" value="Pengumpulan Requirement &amp;amp; Studi Literatur" style="rounded=1;whiteSpace=wrap;html=1;strokeColor=#ADADAD;" parent="1" vertex="1">
          <mxGeometry x="315" y="340" width="120" height="60" as="geometry" />
        </mxCell>
        <mxCell id="ZYYtO3zmWTI-Gvjil7P2-13" style="edgeStyle=orthogonalEdgeStyle;rounded=0;orthogonalLoop=1;jettySize=auto;html=1;" parent="1" source="ZYYtO3zmWTI-Gvjil7P2-4" target="ZYYtO3zmWTI-Gvjil7P2-7" edge="1">
          <mxGeometry relative="1" as="geometry" />
        </mxCell>
        <mxCell id="ZYYtO3zmWTI-Gvjil7P2-4" value="Perancangan Aplikasi" style="rounded=1;whiteSpace=wrap;html=1;strokeColor=#A3A3A3;" parent="1" vertex="1">
          <mxGeometry x="310" y="430" width="130" height="62.5" as="geometry" />
        </mxCell>
        <mxCell id="ZYYtO3zmWTI-Gvjil7P2-18" style="edgeStyle=orthogonalEdgeStyle;rounded=0;orthogonalLoop=1;jettySize=auto;html=1;entryX=0.5;entryY=0;entryDx=0;entryDy=0;" parent="1" source="ZYYtO3zmWTI-Gvjil7P2-7" target="ZYYtO3zmWTI-Gvjil7P2-17" edge="1">
          <mxGeometry relative="1" as="geometry" />
        </mxCell>
        <mxCell id="ZYYtO3zmWTI-Gvjil7P2-7" value="" style="rounded=0;whiteSpace=wrap;html=1;fillColor=default;strokeColor=#b85450;" parent="1" vertex="1">
          <mxGeometry x="270" y="520" width="210" height="230" as="geometry" />
        </mxCell>
        <mxCell id="ZYYtO3zmWTI-Gvjil7P2-11" style="edgeStyle=orthogonalEdgeStyle;rounded=0;orthogonalLoop=1;jettySize=auto;html=1;" parent="1" source="ZYYtO3zmWTI-Gvjil7P2-9" target="ZYYtO3zmWTI-Gvjil7P2-10" edge="1">
          <mxGeometry relative="1" as="geometry" />
        </mxCell>
        <mxCell id="ZYYtO3zmWTI-Gvjil7P2-9" value="Mendesain Aplikasi" style="rounded=1;whiteSpace=wrap;html=1;strokeColor=#A3A3A3;" parent="1" vertex="1">
          <mxGeometry x="315" y="575" width="120" height="60" as="geometry" />
        </mxCell>
        <mxCell id="ZYYtO3zmWTI-Gvjil7P2-12" style="edgeStyle=orthogonalEdgeStyle;rounded=0;orthogonalLoop=1;jettySize=auto;html=1;entryX=1;entryY=0.5;entryDx=0;entryDy=0;" parent="1" source="ZYYtO3zmWTI-Gvjil7P2-10" target="ZYYtO3zmWTI-Gvjil7P2-9" edge="1">
          <mxGeometry relative="1" as="geometry">
            <Array as="points">
              <mxPoint x="455" y="695" />
              <mxPoint x="455" y="605" />
            </Array>
          </mxGeometry>
        </mxCell>
        <mxCell id="ZYYtO3zmWTI-Gvjil7P2-10" value="Membangun Aplikasi" style="rounded=1;whiteSpace=wrap;html=1;strokeColor=#A3A3A3;" parent="1" vertex="1">
          <mxGeometry x="315" y="665" width="120" height="60" as="geometry" />
        </mxCell>
        <mxCell id="ZYYtO3zmWTI-Gvjil7P2-16" value="Workshop Desain" style="text;html=1;strokeColor=none;fillColor=none;align=center;verticalAlign=middle;whiteSpace=wrap;rounded=0;" parent="1" vertex="1">
          <mxGeometry x="305" y="540" width="140" height="20" as="geometry" />
        </mxCell>
        <mxCell id="ZYYtO3zmWTI-Gvjil7P2-20" style="edgeStyle=orthogonalEdgeStyle;rounded=0;orthogonalLoop=1;jettySize=auto;html=1;" parent="1" source="ZYYtO3zmWTI-Gvjil7P2-17" target="ZYYtO3zmWTI-Gvjil7P2-19" edge="1">
          <mxGeometry relative="1" as="geometry" />
        </mxCell>
        <mxCell id="ZYYtO3zmWTI-Gvjil7P2-17" value="Demo Aplikasi" style="rounded=1;whiteSpace=wrap;html=1;strokeColor=#A3A3A3;" parent="1" vertex="1">
          <mxGeometry x="315" y="780" width="120" height="50" as="geometry" />
        </mxCell>
        <mxCell id="ZYYtO3zmWTI-Gvjil7P2-22" style="edgeStyle=orthogonalEdgeStyle;rounded=0;orthogonalLoop=1;jettySize=auto;html=1;entryX=0.5;entryY=0;entryDx=0;entryDy=0;" parent="1" source="ZYYtO3zmWTI-Gvjil7P2-19" target="ZYYtO3zmWTI-Gvjil7P2-21" edge="1">
          <mxGeometry relative="1" as="geometry" />
        </mxCell>
        <mxCell id="ZYYtO3zmWTI-Gvjil7P2-19" value="Analisis Data" style="rounded=1;whiteSpace=wrap;html=1;strokeColor=#A3A3A3;" parent="1" vertex="1">
          <mxGeometry x="315" y="860" width="120" height="50" as="geometry" />
        </mxCell>
        <mxCell id="ZYYtO3zmWTI-Gvjil7P2-24" style="edgeStyle=orthogonalEdgeStyle;rounded=0;orthogonalLoop=1;jettySize=auto;html=1;" parent="1" source="ZYYtO3zmWTI-Gvjil7P2-21" target="ZYYtO3zmWTI-Gvjil7P2-23" edge="1">
          <mxGeometry relative="1" as="geometry" />
        </mxCell>
        <mxCell id="ZYYtO3zmWTI-Gvjil7P2-21" value="Kesimpulan" style="rounded=1;whiteSpace=wrap;html=1;strokeColor=#A3A3A3;" parent="1" vertex="1">
          <mxGeometry x="315" y="940" width="120" height="50" as="geometry" />
        </mxCell>
        <mxCell id="ZYYtO3zmWTI-Gvjil7P2-23" value="Selesai" style="strokeWidth=2;html=1;shape=mxgraph.flowchart.start_1;whiteSpace=wrap;fillColor=#e1d5e7;strokeColor=#9673a6;" parent="1" vertex="1">
          <mxGeometry x="325" y="1020" width="100" height="60" as="geometry" />
        </mxCell>
      </root>
    </mxGraphModel>
  </diagram>
  <diagram id="31EL4WFnWygpUmvVGShi" name="Page-2">
    <mxGraphModel dx="997" dy="588" grid="1" gridSize="10" guides="1" tooltips="1" connect="1" arrows="1" fold="1" page="1" pageScale="1" pageWidth="850" pageHeight="1100" math="0" shadow="0">
      <root>
        <mxCell id="0iUQ2i3u5rt8GQJMuJ5E-0" />
        <mxCell id="0iUQ2i3u5rt8GQJMuJ5E-1" parent="0iUQ2i3u5rt8GQJMuJ5E-0" />
        <mxCell id="0iUQ2i3u5rt8GQJMuJ5E-5" value="" style="whiteSpace=wrap;html=1;aspect=fixed;" parent="0iUQ2i3u5rt8GQJMuJ5E-1" vertex="1">
          <mxGeometry x="135" y="140" width="580" height="580" as="geometry" />
        </mxCell>
        <mxCell id="0iUQ2i3u5rt8GQJMuJ5E-19" style="edgeStyle=orthogonalEdgeStyle;rounded=0;orthogonalLoop=1;jettySize=auto;html=1;endArrow=block;endFill=0;" parent="0iUQ2i3u5rt8GQJMuJ5E-1" source="0iUQ2i3u5rt8GQJMuJ5E-3" target="0iUQ2i3u5rt8GQJMuJ5E-6" edge="1">
          <mxGeometry relative="1" as="geometry" />
        </mxCell>
        <mxCell id="0iUQ2i3u5rt8GQJMuJ5E-3" value="Actor" style="shape=umlActor;verticalLabelPosition=bottom;verticalAlign=top;html=1;outlineConnect=0;" parent="0iUQ2i3u5rt8GQJMuJ5E-1" vertex="1">
          <mxGeometry x="190" y="372.5" width="30" height="60" as="geometry" />
        </mxCell>
        <mxCell id="0iUQ2i3u5rt8GQJMuJ5E-4" value="Pembelajaran Organ Pencernaan Manusia" style="swimlane;" parent="0iUQ2i3u5rt8GQJMuJ5E-1" vertex="1">
          <mxGeometry x="270" y="195" width="380" height="470" as="geometry" />
        </mxCell>
        <mxCell id="0iUQ2i3u5rt8GQJMuJ5E-13" style="edgeStyle=orthogonalEdgeStyle;rounded=0;orthogonalLoop=1;jettySize=auto;html=1;exitX=1;exitY=0;exitDx=0;exitDy=0;entryX=0;entryY=0.5;entryDx=0;entryDy=0;endArrow=block;endFill=0;" parent="0iUQ2i3u5rt8GQJMuJ5E-4" source="0iUQ2i3u5rt8GQJMuJ5E-6" target="0iUQ2i3u5rt8GQJMuJ5E-7" edge="1">
          <mxGeometry relative="1" as="geometry">
            <Array as="points">
              <mxPoint x="80" y="73" />
            </Array>
          </mxGeometry>
        </mxCell>
        <mxCell id="0iUQ2i3u5rt8GQJMuJ5E-14" style="edgeStyle=orthogonalEdgeStyle;rounded=0;orthogonalLoop=1;jettySize=auto;html=1;exitX=1;exitY=0;exitDx=0;exitDy=0;entryX=0;entryY=0.5;entryDx=0;entryDy=0;endArrow=block;endFill=0;" parent="0iUQ2i3u5rt8GQJMuJ5E-4" source="0iUQ2i3u5rt8GQJMuJ5E-6" target="0iUQ2i3u5rt8GQJMuJ5E-8" edge="1">
          <mxGeometry relative="1" as="geometry">
            <Array as="points">
              <mxPoint x="80" y="138" />
              <mxPoint x="105" y="138" />
            </Array>
          </mxGeometry>
        </mxCell>
        <mxCell id="0iUQ2i3u5rt8GQJMuJ5E-15" style="edgeStyle=orthogonalEdgeStyle;rounded=0;orthogonalLoop=1;jettySize=auto;html=1;exitX=1;exitY=0.5;exitDx=0;exitDy=0;entryX=0;entryY=0.5;entryDx=0;entryDy=0;endArrow=block;endFill=0;" parent="0iUQ2i3u5rt8GQJMuJ5E-4" source="0iUQ2i3u5rt8GQJMuJ5E-6" target="0iUQ2i3u5rt8GQJMuJ5E-9" edge="1">
          <mxGeometry relative="1" as="geometry">
            <Array as="points">
              <mxPoint x="90" y="205" />
            </Array>
          </mxGeometry>
        </mxCell>
        <mxCell id="0iUQ2i3u5rt8GQJMuJ5E-16" style="edgeStyle=orthogonalEdgeStyle;rounded=0;orthogonalLoop=1;jettySize=auto;html=1;exitX=1;exitY=1;exitDx=0;exitDy=0;entryX=0;entryY=0.5;entryDx=0;entryDy=0;endArrow=block;endFill=0;" parent="0iUQ2i3u5rt8GQJMuJ5E-4" source="0iUQ2i3u5rt8GQJMuJ5E-6" target="0iUQ2i3u5rt8GQJMuJ5E-10" edge="1">
          <mxGeometry relative="1" as="geometry">
            <Array as="points">
              <mxPoint x="80" y="245" />
              <mxPoint x="80" y="245" />
              <mxPoint x="80" y="268" />
            </Array>
          </mxGeometry>
        </mxCell>
        <mxCell id="0iUQ2i3u5rt8GQJMuJ5E-17" style="edgeStyle=orthogonalEdgeStyle;rounded=0;orthogonalLoop=1;jettySize=auto;html=1;exitX=1;exitY=1;exitDx=0;exitDy=0;entryX=0;entryY=0.5;entryDx=0;entryDy=0;endArrow=block;endFill=0;" parent="0iUQ2i3u5rt8GQJMuJ5E-4" source="0iUQ2i3u5rt8GQJMuJ5E-6" target="0iUQ2i3u5rt8GQJMuJ5E-11" edge="1">
          <mxGeometry relative="1" as="geometry">
            <Array as="points">
              <mxPoint x="80" y="268" />
              <mxPoint x="80" y="268" />
              <mxPoint x="80" y="332" />
            </Array>
          </mxGeometry>
        </mxCell>
        <mxCell id="0iUQ2i3u5rt8GQJMuJ5E-18" style="edgeStyle=orthogonalEdgeStyle;rounded=0;orthogonalLoop=1;jettySize=auto;html=1;exitX=1;exitY=1;exitDx=0;exitDy=0;entryX=0;entryY=0.5;entryDx=0;entryDy=0;endArrow=block;endFill=0;" parent="0iUQ2i3u5rt8GQJMuJ5E-4" source="0iUQ2i3u5rt8GQJMuJ5E-6" target="0iUQ2i3u5rt8GQJMuJ5E-12" edge="1">
          <mxGeometry relative="1" as="geometry">
            <Array as="points">
              <mxPoint x="80" y="300" />
              <mxPoint x="80" y="300" />
              <mxPoint x="80" y="398" />
            </Array>
          </mxGeometry>
        </mxCell>
        <mxCell id="0iUQ2i3u5rt8GQJMuJ5E-6" value="&lt;font style=&quot;font-size: 10px&quot;&gt;Pilih Organ&lt;/font&gt;" style="ellipse;whiteSpace=wrap;html=1;" parent="0iUQ2i3u5rt8GQJMuJ5E-4" vertex="1">
          <mxGeometry x="20" y="187.5" width="70" height="40" as="geometry" />
        </mxCell>
        <mxCell id="0iUQ2i3u5rt8GQJMuJ5E-7" value="&lt;font style=&quot;font-size: 10px&quot;&gt;Mulut&lt;/font&gt;" style="ellipse;whiteSpace=wrap;html=1;" parent="0iUQ2i3u5rt8GQJMuJ5E-4" vertex="1">
          <mxGeometry x="130" y="55" width="80" height="35" as="geometry" />
        </mxCell>
        <mxCell id="0iUQ2i3u5rt8GQJMuJ5E-8" value="&lt;font style=&quot;font-size: 10px&quot;&gt;Kerongkongan&lt;/font&gt;" style="ellipse;whiteSpace=wrap;html=1;" parent="0iUQ2i3u5rt8GQJMuJ5E-4" vertex="1">
          <mxGeometry x="125" y="115" width="90" height="45" as="geometry" />
        </mxCell>
        <mxCell id="0iUQ2i3u5rt8GQJMuJ5E-9" value="&lt;font style=&quot;font-size: 10px&quot;&gt;Lambung&lt;/font&gt;" style="ellipse;whiteSpace=wrap;html=1;" parent="0iUQ2i3u5rt8GQJMuJ5E-4" vertex="1">
          <mxGeometry x="125" y="182.5" width="90" height="45" as="geometry" />
        </mxCell>
        <mxCell id="0iUQ2i3u5rt8GQJMuJ5E-10" value="&lt;font style=&quot;font-size: 10px&quot;&gt;Usus Halus&lt;/font&gt;" style="ellipse;whiteSpace=wrap;html=1;" parent="0iUQ2i3u5rt8GQJMuJ5E-4" vertex="1">
          <mxGeometry x="125" y="245" width="90" height="45" as="geometry" />
        </mxCell>
        <mxCell id="0iUQ2i3u5rt8GQJMuJ5E-11" value="&lt;font style=&quot;font-size: 10px&quot;&gt;Usus Besar&lt;/font&gt;" style="ellipse;whiteSpace=wrap;html=1;" parent="0iUQ2i3u5rt8GQJMuJ5E-4" vertex="1">
          <mxGeometry x="125" y="310" width="90" height="45" as="geometry" />
        </mxCell>
        <mxCell id="0iUQ2i3u5rt8GQJMuJ5E-12" value="&lt;font style=&quot;font-size: 10px&quot;&gt;Anus&lt;/font&gt;" style="ellipse;whiteSpace=wrap;html=1;" parent="0iUQ2i3u5rt8GQJMuJ5E-4" vertex="1">
          <mxGeometry x="125" y="375" width="90" height="45" as="geometry" />
        </mxCell>
        <mxCell id="0iUQ2i3u5rt8GQJMuJ5E-21" style="edgeStyle=orthogonalEdgeStyle;rounded=0;orthogonalLoop=1;jettySize=auto;html=1;exitX=0;exitY=0;exitDx=0;exitDy=0;entryX=1;entryY=0.5;entryDx=0;entryDy=0;endArrow=block;endFill=0;" parent="0iUQ2i3u5rt8GQJMuJ5E-4" source="0iUQ2i3u5rt8GQJMuJ5E-20" target="0iUQ2i3u5rt8GQJMuJ5E-7" edge="1">
          <mxGeometry relative="1" as="geometry">
            <Array as="points">
              <mxPoint x="240" y="249" />
              <mxPoint x="240" y="73" />
            </Array>
          </mxGeometry>
        </mxCell>
        <mxCell id="0iUQ2i3u5rt8GQJMuJ5E-22" style="edgeStyle=orthogonalEdgeStyle;rounded=0;orthogonalLoop=1;jettySize=auto;html=1;exitX=0;exitY=0;exitDx=0;exitDy=0;entryX=1;entryY=0.5;entryDx=0;entryDy=0;endArrow=block;endFill=0;" parent="0iUQ2i3u5rt8GQJMuJ5E-4" source="0iUQ2i3u5rt8GQJMuJ5E-20" target="0iUQ2i3u5rt8GQJMuJ5E-8" edge="1">
          <mxGeometry relative="1" as="geometry">
            <Array as="points">
              <mxPoint x="240" y="249" />
              <mxPoint x="240" y="138" />
            </Array>
          </mxGeometry>
        </mxCell>
        <mxCell id="0iUQ2i3u5rt8GQJMuJ5E-23" style="edgeStyle=orthogonalEdgeStyle;rounded=0;orthogonalLoop=1;jettySize=auto;html=1;exitX=0;exitY=0.5;exitDx=0;exitDy=0;endArrow=block;endFill=0;" parent="0iUQ2i3u5rt8GQJMuJ5E-4" source="0iUQ2i3u5rt8GQJMuJ5E-20" target="0iUQ2i3u5rt8GQJMuJ5E-10" edge="1">
          <mxGeometry relative="1" as="geometry" />
        </mxCell>
        <mxCell id="0iUQ2i3u5rt8GQJMuJ5E-24" style="edgeStyle=orthogonalEdgeStyle;rounded=0;orthogonalLoop=1;jettySize=auto;html=1;exitX=0;exitY=0;exitDx=0;exitDy=0;entryX=1;entryY=0.5;entryDx=0;entryDy=0;endArrow=block;endFill=0;" parent="0iUQ2i3u5rt8GQJMuJ5E-4" source="0iUQ2i3u5rt8GQJMuJ5E-20" target="0iUQ2i3u5rt8GQJMuJ5E-9" edge="1">
          <mxGeometry relative="1" as="geometry">
            <Array as="points">
              <mxPoint x="240" y="249" />
              <mxPoint x="240" y="205" />
            </Array>
          </mxGeometry>
        </mxCell>
        <mxCell id="0iUQ2i3u5rt8GQJMuJ5E-25" style="edgeStyle=orthogonalEdgeStyle;rounded=0;orthogonalLoop=1;jettySize=auto;html=1;exitX=0;exitY=1;exitDx=0;exitDy=0;entryX=1;entryY=0.5;entryDx=0;entryDy=0;endArrow=block;endFill=0;" parent="0iUQ2i3u5rt8GQJMuJ5E-4" source="0iUQ2i3u5rt8GQJMuJ5E-20" target="0iUQ2i3u5rt8GQJMuJ5E-11" edge="1">
          <mxGeometry relative="1" as="geometry">
            <Array as="points">
              <mxPoint x="240" y="286" />
              <mxPoint x="240" y="333" />
            </Array>
          </mxGeometry>
        </mxCell>
        <mxCell id="0iUQ2i3u5rt8GQJMuJ5E-26" style="edgeStyle=orthogonalEdgeStyle;rounded=0;orthogonalLoop=1;jettySize=auto;html=1;exitX=0;exitY=1;exitDx=0;exitDy=0;entryX=1;entryY=0.5;entryDx=0;entryDy=0;endArrow=block;endFill=0;" parent="0iUQ2i3u5rt8GQJMuJ5E-4" source="0iUQ2i3u5rt8GQJMuJ5E-20" target="0iUQ2i3u5rt8GQJMuJ5E-12" edge="1">
          <mxGeometry relative="1" as="geometry">
            <Array as="points">
              <mxPoint x="240" y="286" />
              <mxPoint x="240" y="398" />
            </Array>
          </mxGeometry>
        </mxCell>
        <mxCell id="0iUQ2i3u5rt8GQJMuJ5E-20" value="&lt;font style=&quot;font-size: 10px&quot;&gt;Arahkan kamera ke marker&lt;/font&gt;" style="ellipse;whiteSpace=wrap;html=1;" parent="0iUQ2i3u5rt8GQJMuJ5E-4" vertex="1">
          <mxGeometry x="275" y="241.25" width="100" height="52.5" as="geometry" />
        </mxCell>
        <mxCell id="0iUQ2i3u5rt8GQJMuJ5E-27" value="&lt;font style=&quot;font-size: 8px&quot;&gt;&amp;lt;&amp;lt;extends&amp;gt;&amp;gt;&lt;/font&gt;" style="text;html=1;strokeColor=none;fillColor=none;align=center;verticalAlign=middle;whiteSpace=wrap;rounded=0;" parent="0iUQ2i3u5rt8GQJMuJ5E-4" vertex="1">
          <mxGeometry x="240" y="227.5" width="50" height="22.5" as="geometry" />
        </mxCell>
        <mxCell id="0iUQ2i3u5rt8GQJMuJ5E-31" style="edgeStyle=orthogonalEdgeStyle;rounded=0;orthogonalLoop=1;jettySize=auto;html=1;entryX=0.5;entryY=0;entryDx=0;entryDy=0;fontSize=9;endArrow=block;endFill=0;" parent="0iUQ2i3u5rt8GQJMuJ5E-4" source="0iUQ2i3u5rt8GQJMuJ5E-30" target="0iUQ2i3u5rt8GQJMuJ5E-20" edge="1">
          <mxGeometry relative="1" as="geometry" />
        </mxCell>
        <mxCell id="0iUQ2i3u5rt8GQJMuJ5E-30" value="&lt;font style=&quot;font-size: 9px&quot;&gt;Menampilkan Organ 3D dan detailnya&lt;/font&gt;" style="ellipse;whiteSpace=wrap;html=1;fontSize=8;" parent="0iUQ2i3u5rt8GQJMuJ5E-4" vertex="1">
          <mxGeometry x="260" y="116.5" width="90" height="42" as="geometry" />
        </mxCell>
        <mxCell id="0iUQ2i3u5rt8GQJMuJ5E-28" value="&lt;font style=&quot;font-size: 8px&quot;&gt;&amp;lt;&amp;lt;extends&amp;gt;&amp;gt;&lt;/font&gt;" style="text;html=1;strokeColor=none;fillColor=none;align=center;verticalAlign=middle;whiteSpace=wrap;rounded=0;" parent="0iUQ2i3u5rt8GQJMuJ5E-1" vertex="1">
          <mxGeometry x="500" y="450" width="50" height="30" as="geometry" />
        </mxCell>
        <mxCell id="0iUQ2i3u5rt8GQJMuJ5E-29" value="&lt;font style=&quot;font-size: 8px&quot;&gt;&amp;lt;&amp;lt;extends&amp;gt;&amp;gt;&lt;/font&gt;" style="text;html=1;strokeColor=none;fillColor=none;align=center;verticalAlign=middle;whiteSpace=wrap;rounded=0;" parent="0iUQ2i3u5rt8GQJMuJ5E-1" vertex="1">
          <mxGeometry x="510" y="470" width="50" height="30" as="geometry" />
        </mxCell>
        <mxCell id="0iUQ2i3u5rt8GQJMuJ5E-32" value="&lt;font style=&quot;font-size: 8px&quot;&gt;&amp;lt;&amp;lt;uses&amp;gt;&amp;gt;&lt;/font&gt;" style="text;html=1;strokeColor=none;fillColor=none;align=center;verticalAlign=middle;whiteSpace=wrap;rounded=0;" parent="0iUQ2i3u5rt8GQJMuJ5E-1" vertex="1">
          <mxGeometry x="570" y="372.5" width="50" height="22.5" as="geometry" />
        </mxCell>
      </root>
    </mxGraphModel>
  </diagram>
  <diagram id="joomMGyVPOK_42K8rD2c" name="Page-3">
    <mxGraphModel dx="1534" dy="905" grid="1" gridSize="10" guides="1" tooltips="1" connect="1" arrows="1" fold="1" page="1" pageScale="1" pageWidth="850" pageHeight="1100" math="0" shadow="0">
      <root>
        <mxCell id="tXN5z0qdcC5efQAVFjsk-0" />
        <mxCell id="tXN5z0qdcC5efQAVFjsk-1" parent="tXN5z0qdcC5efQAVFjsk-0" />
        <mxCell id="eMB9XwCsOssjEcGswCDz-0" value="" style="whiteSpace=wrap;html=1;aspect=fixed;" parent="tXN5z0qdcC5efQAVFjsk-1" vertex="1">
          <mxGeometry x="135" y="130" width="620" height="620" as="geometry" />
        </mxCell>
        <mxCell id="eMB9XwCsOssjEcGswCDz-1" value="" style="endArrow=none;html=1;rounded=0;fontSize=9;strokeColor=#030303;exitX=1.001;exitY=0.054;exitDx=0;exitDy=0;exitPerimeter=0;entryX=-0.004;entryY=0.057;entryDx=0;entryDy=0;entryPerimeter=0;" parent="tXN5z0qdcC5efQAVFjsk-1" source="eMB9XwCsOssjEcGswCDz-0" target="eMB9XwCsOssjEcGswCDz-0" edge="1">
          <mxGeometry width="50" height="50" relative="1" as="geometry">
            <mxPoint x="400" y="440" as="sourcePoint" />
            <mxPoint x="450" y="390" as="targetPoint" />
          </mxGeometry>
        </mxCell>
        <mxCell id="fyftXfI4LWQmyPdiKRK2-2" value="" style="endArrow=none;html=1;rounded=0;entryX=0.361;entryY=-0.001;entryDx=0;entryDy=0;entryPerimeter=0;exitX=0.358;exitY=1.002;exitDx=0;exitDy=0;exitPerimeter=0;" edge="1" parent="tXN5z0qdcC5efQAVFjsk-1" source="eMB9XwCsOssjEcGswCDz-0" target="eMB9XwCsOssjEcGswCDz-0">
          <mxGeometry width="50" height="50" relative="1" as="geometry">
            <mxPoint x="340" y="710" as="sourcePoint" />
            <mxPoint x="450" y="480" as="targetPoint" />
          </mxGeometry>
        </mxCell>
        <mxCell id="fyftXfI4LWQmyPdiKRK2-3" value="User" style="text;html=1;strokeColor=none;fillColor=none;align=center;verticalAlign=middle;whiteSpace=wrap;rounded=0;fontSize=14;fontStyle=1" vertex="1" parent="tXN5z0qdcC5efQAVFjsk-1">
          <mxGeometry x="210" y="130" width="60" height="30" as="geometry" />
        </mxCell>
        <mxCell id="fyftXfI4LWQmyPdiKRK2-4" value="Sistem" style="text;html=1;strokeColor=none;fillColor=none;align=center;verticalAlign=middle;whiteSpace=wrap;rounded=0;fontSize=14;fontStyle=1" vertex="1" parent="tXN5z0qdcC5efQAVFjsk-1">
          <mxGeometry x="525" y="130" width="60" height="30" as="geometry" />
        </mxCell>
        <mxCell id="fyftXfI4LWQmyPdiKRK2-45" style="edgeStyle=orthogonalEdgeStyle;rounded=0;orthogonalLoop=1;jettySize=auto;html=1;entryX=0;entryY=0.5;entryDx=0;entryDy=0;fontSize=12;" edge="1" parent="tXN5z0qdcC5efQAVFjsk-1" source="fyftXfI4LWQmyPdiKRK2-5" target="fyftXfI4LWQmyPdiKRK2-6">
          <mxGeometry relative="1" as="geometry" />
        </mxCell>
        <mxCell id="fyftXfI4LWQmyPdiKRK2-5" value="" style="ellipse;whiteSpace=wrap;html=1;aspect=fixed;fontSize=14;fillColor=#141414;" vertex="1" parent="tXN5z0qdcC5efQAVFjsk-1">
          <mxGeometry x="225" y="190" width="30" height="30" as="geometry" />
        </mxCell>
        <mxCell id="fyftXfI4LWQmyPdiKRK2-11" style="edgeStyle=orthogonalEdgeStyle;rounded=0;orthogonalLoop=1;jettySize=auto;html=1;exitX=0.5;exitY=1;exitDx=0;exitDy=0;entryX=0.5;entryY=0;entryDx=0;entryDy=0;fontSize=12;" edge="1" parent="tXN5z0qdcC5efQAVFjsk-1" source="fyftXfI4LWQmyPdiKRK2-6" target="fyftXfI4LWQmyPdiKRK2-7">
          <mxGeometry relative="1" as="geometry" />
        </mxCell>
        <mxCell id="fyftXfI4LWQmyPdiKRK2-6" value="&lt;font style=&quot;font-size: 12px&quot;&gt;Splash Screen&lt;/font&gt;" style="rounded=1;whiteSpace=wrap;html=1;fontSize=14;fillColor=#FFFFFF;" vertex="1" parent="tXN5z0qdcC5efQAVFjsk-1">
          <mxGeometry x="440" y="190" width="100" height="30" as="geometry" />
        </mxCell>
        <mxCell id="fyftXfI4LWQmyPdiKRK2-12" style="edgeStyle=orthogonalEdgeStyle;rounded=0;orthogonalLoop=1;jettySize=auto;html=1;exitX=0.5;exitY=1;exitDx=0;exitDy=0;fontSize=12;" edge="1" parent="tXN5z0qdcC5efQAVFjsk-1" source="fyftXfI4LWQmyPdiKRK2-7" target="fyftXfI4LWQmyPdiKRK2-8">
          <mxGeometry relative="1" as="geometry" />
        </mxCell>
        <mxCell id="fyftXfI4LWQmyPdiKRK2-7" value="&lt;font style=&quot;font-size: 12px&quot;&gt;Menu Utama&lt;/font&gt;" style="rounded=1;whiteSpace=wrap;html=1;fontSize=14;fillColor=#FFFFFF;" vertex="1" parent="tXN5z0qdcC5efQAVFjsk-1">
          <mxGeometry x="440" y="240" width="100" height="30" as="geometry" />
        </mxCell>
        <mxCell id="fyftXfI4LWQmyPdiKRK2-20" style="edgeStyle=orthogonalEdgeStyle;rounded=0;orthogonalLoop=1;jettySize=auto;html=1;entryX=0.5;entryY=0;entryDx=0;entryDy=0;fontSize=12;" edge="1" parent="tXN5z0qdcC5efQAVFjsk-1" source="fyftXfI4LWQmyPdiKRK2-8" target="fyftXfI4LWQmyPdiKRK2-14">
          <mxGeometry relative="1" as="geometry">
            <mxPoint x="240" y="305" as="targetPoint" />
            <Array as="points">
              <mxPoint x="470" y="330" />
              <mxPoint x="370" y="330" />
              <mxPoint x="370" y="290" />
              <mxPoint x="240" y="290" />
            </Array>
          </mxGeometry>
        </mxCell>
        <mxCell id="fyftXfI4LWQmyPdiKRK2-8" value="&lt;font style=&quot;font-size: 12px&quot;&gt;Daftar Organ&lt;/font&gt;" style="rounded=1;whiteSpace=wrap;html=1;fontSize=14;fillColor=#FFFFFF;" vertex="1" parent="tXN5z0qdcC5efQAVFjsk-1">
          <mxGeometry x="440" y="290" width="100" height="30" as="geometry" />
        </mxCell>
        <mxCell id="fyftXfI4LWQmyPdiKRK2-10" style="edgeStyle=orthogonalEdgeStyle;rounded=0;orthogonalLoop=1;jettySize=auto;html=1;entryX=0;entryY=0.5;entryDx=0;entryDy=0;fontSize=12;" edge="1" parent="tXN5z0qdcC5efQAVFjsk-1" source="fyftXfI4LWQmyPdiKRK2-9" target="fyftXfI4LWQmyPdiKRK2-8">
          <mxGeometry relative="1" as="geometry">
            <Array as="points">
              <mxPoint x="380" y="265" />
              <mxPoint x="380" y="305" />
            </Array>
          </mxGeometry>
        </mxCell>
        <mxCell id="fyftXfI4LWQmyPdiKRK2-9" value="&lt;font style=&quot;font-size: 12px&quot;&gt;Tombol Mulai&lt;/font&gt;" style="rounded=1;whiteSpace=wrap;html=1;fontSize=14;fillColor=#FFFFFF;" vertex="1" parent="tXN5z0qdcC5efQAVFjsk-1">
          <mxGeometry x="190" y="250" width="100" height="30" as="geometry" />
        </mxCell>
        <mxCell id="fyftXfI4LWQmyPdiKRK2-13" style="edgeStyle=orthogonalEdgeStyle;rounded=0;orthogonalLoop=1;jettySize=auto;html=1;exitX=0.5;exitY=1;exitDx=0;exitDy=0;fontSize=12;" edge="1" parent="tXN5z0qdcC5efQAVFjsk-1" source="fyftXfI4LWQmyPdiKRK2-6" target="fyftXfI4LWQmyPdiKRK2-6">
          <mxGeometry relative="1" as="geometry" />
        </mxCell>
        <mxCell id="fyftXfI4LWQmyPdiKRK2-37" style="edgeStyle=orthogonalEdgeStyle;rounded=0;orthogonalLoop=1;jettySize=auto;html=1;fontSize=12;" edge="1" parent="tXN5z0qdcC5efQAVFjsk-1" source="fyftXfI4LWQmyPdiKRK2-14" target="fyftXfI4LWQmyPdiKRK2-15">
          <mxGeometry relative="1" as="geometry" />
        </mxCell>
        <mxCell id="fyftXfI4LWQmyPdiKRK2-61" style="edgeStyle=orthogonalEdgeStyle;rounded=0;orthogonalLoop=1;jettySize=auto;html=1;entryX=0.091;entryY=0.026;entryDx=0;entryDy=0;entryPerimeter=0;fontSize=12;" edge="1" parent="tXN5z0qdcC5efQAVFjsk-1" source="fyftXfI4LWQmyPdiKRK2-14" target="fyftXfI4LWQmyPdiKRK2-59">
          <mxGeometry relative="1" as="geometry" />
        </mxCell>
        <mxCell id="fyftXfI4LWQmyPdiKRK2-14" value="&lt;font style=&quot;font-size: 12px&quot;&gt;Mulut&lt;/font&gt;" style="rounded=1;whiteSpace=wrap;html=1;fontSize=14;fillColor=#FFFFFF;" vertex="1" parent="tXN5z0qdcC5efQAVFjsk-1">
          <mxGeometry x="190" y="320" width="100" height="30" as="geometry" />
        </mxCell>
        <mxCell id="fyftXfI4LWQmyPdiKRK2-38" style="edgeStyle=orthogonalEdgeStyle;rounded=0;orthogonalLoop=1;jettySize=auto;html=1;fontSize=12;" edge="1" parent="tXN5z0qdcC5efQAVFjsk-1" source="fyftXfI4LWQmyPdiKRK2-15" target="fyftXfI4LWQmyPdiKRK2-16">
          <mxGeometry relative="1" as="geometry" />
        </mxCell>
        <mxCell id="fyftXfI4LWQmyPdiKRK2-62" style="edgeStyle=orthogonalEdgeStyle;rounded=0;orthogonalLoop=1;jettySize=auto;html=1;entryX=0.004;entryY=0.261;entryDx=0;entryDy=0;fontSize=12;entryPerimeter=0;" edge="1" parent="tXN5z0qdcC5efQAVFjsk-1" source="fyftXfI4LWQmyPdiKRK2-15" target="fyftXfI4LWQmyPdiKRK2-59">
          <mxGeometry relative="1" as="geometry" />
        </mxCell>
        <mxCell id="fyftXfI4LWQmyPdiKRK2-15" value="&lt;font style=&quot;font-size: 12px&quot;&gt;Kerongkongan&lt;/font&gt;" style="rounded=1;whiteSpace=wrap;html=1;fontSize=14;fillColor=#FFFFFF;" vertex="1" parent="tXN5z0qdcC5efQAVFjsk-1">
          <mxGeometry x="190" y="370" width="100" height="30" as="geometry" />
        </mxCell>
        <mxCell id="fyftXfI4LWQmyPdiKRK2-39" style="edgeStyle=orthogonalEdgeStyle;rounded=0;orthogonalLoop=1;jettySize=auto;html=1;fontSize=12;" edge="1" parent="tXN5z0qdcC5efQAVFjsk-1" source="fyftXfI4LWQmyPdiKRK2-16" target="fyftXfI4LWQmyPdiKRK2-17">
          <mxGeometry relative="1" as="geometry" />
        </mxCell>
        <mxCell id="fyftXfI4LWQmyPdiKRK2-63" style="edgeStyle=orthogonalEdgeStyle;rounded=0;orthogonalLoop=1;jettySize=auto;html=1;entryX=0;entryY=0.5;entryDx=0;entryDy=0;fontSize=12;" edge="1" parent="tXN5z0qdcC5efQAVFjsk-1" source="fyftXfI4LWQmyPdiKRK2-16" target="fyftXfI4LWQmyPdiKRK2-59">
          <mxGeometry relative="1" as="geometry" />
        </mxCell>
        <mxCell id="fyftXfI4LWQmyPdiKRK2-16" value="&lt;span style=&quot;font-size: 12px&quot;&gt;Lambung&lt;/span&gt;" style="rounded=1;whiteSpace=wrap;html=1;fontSize=14;fillColor=#FFFFFF;" vertex="1" parent="tXN5z0qdcC5efQAVFjsk-1">
          <mxGeometry x="190" y="420" width="100" height="30" as="geometry" />
        </mxCell>
        <mxCell id="fyftXfI4LWQmyPdiKRK2-41" style="edgeStyle=orthogonalEdgeStyle;rounded=0;orthogonalLoop=1;jettySize=auto;html=1;fontSize=12;" edge="1" parent="tXN5z0qdcC5efQAVFjsk-1" source="fyftXfI4LWQmyPdiKRK2-17" target="fyftXfI4LWQmyPdiKRK2-18">
          <mxGeometry relative="1" as="geometry" />
        </mxCell>
        <mxCell id="fyftXfI4LWQmyPdiKRK2-64" style="edgeStyle=orthogonalEdgeStyle;rounded=0;orthogonalLoop=1;jettySize=auto;html=1;entryX=-0.013;entryY=0.737;entryDx=0;entryDy=0;fontSize=12;entryPerimeter=0;" edge="1" parent="tXN5z0qdcC5efQAVFjsk-1" source="fyftXfI4LWQmyPdiKRK2-17" target="fyftXfI4LWQmyPdiKRK2-59">
          <mxGeometry relative="1" as="geometry">
            <Array as="points">
              <mxPoint x="330" y="485" />
            </Array>
          </mxGeometry>
        </mxCell>
        <mxCell id="fyftXfI4LWQmyPdiKRK2-17" value="&lt;span style=&quot;font-size: 12px&quot;&gt;Usus Halus&lt;/span&gt;" style="rounded=1;whiteSpace=wrap;html=1;fontSize=14;fillColor=#FFFFFF;" vertex="1" parent="tXN5z0qdcC5efQAVFjsk-1">
          <mxGeometry x="190" y="470" width="100" height="30" as="geometry" />
        </mxCell>
        <mxCell id="fyftXfI4LWQmyPdiKRK2-65" style="edgeStyle=orthogonalEdgeStyle;rounded=0;orthogonalLoop=1;jettySize=auto;html=1;entryX=0;entryY=0.976;entryDx=0;entryDy=0;entryPerimeter=0;fontSize=12;" edge="1" parent="tXN5z0qdcC5efQAVFjsk-1" source="fyftXfI4LWQmyPdiKRK2-18" target="fyftXfI4LWQmyPdiKRK2-59">
          <mxGeometry relative="1" as="geometry" />
        </mxCell>
        <mxCell id="fyftXfI4LWQmyPdiKRK2-18" value="&lt;span style=&quot;font-size: 12px&quot;&gt;Usus Besar&lt;/span&gt;" style="rounded=1;whiteSpace=wrap;html=1;fontSize=14;fillColor=#FFFFFF;" vertex="1" parent="tXN5z0qdcC5efQAVFjsk-1">
          <mxGeometry x="190" y="520" width="100" height="30" as="geometry" />
        </mxCell>
        <mxCell id="fyftXfI4LWQmyPdiKRK2-24" style="edgeStyle=orthogonalEdgeStyle;rounded=0;orthogonalLoop=1;jettySize=auto;html=1;entryX=0.5;entryY=0;entryDx=0;entryDy=0;fontSize=12;" edge="1" parent="tXN5z0qdcC5efQAVFjsk-1" source="fyftXfI4LWQmyPdiKRK2-22" target="fyftXfI4LWQmyPdiKRK2-23">
          <mxGeometry relative="1" as="geometry">
            <Array as="points">
              <mxPoint x="490" y="560" />
              <mxPoint x="240" y="560" />
            </Array>
          </mxGeometry>
        </mxCell>
        <mxCell id="fyftXfI4LWQmyPdiKRK2-22" value="&lt;font style=&quot;font-size: 12px&quot;&gt;Kamera Aktif&lt;/font&gt;" style="rounded=1;whiteSpace=wrap;html=1;fontSize=14;fillColor=#FFFFFF;" vertex="1" parent="tXN5z0qdcC5efQAVFjsk-1">
          <mxGeometry x="440" y="370" width="100" height="30" as="geometry" />
        </mxCell>
        <mxCell id="fyftXfI4LWQmyPdiKRK2-43" style="edgeStyle=orthogonalEdgeStyle;rounded=0;orthogonalLoop=1;jettySize=auto;html=1;exitX=1;exitY=0.5;exitDx=0;exitDy=0;entryX=0;entryY=0.5;entryDx=0;entryDy=0;fontSize=12;" edge="1" parent="tXN5z0qdcC5efQAVFjsk-1" source="fyftXfI4LWQmyPdiKRK2-23" target="fyftXfI4LWQmyPdiKRK2-42">
          <mxGeometry relative="1" as="geometry" />
        </mxCell>
        <mxCell id="fyftXfI4LWQmyPdiKRK2-23" value="&lt;span style=&quot;font-size: 12px&quot;&gt;Arahkan ke Marker&lt;/span&gt;" style="rounded=1;whiteSpace=wrap;html=1;fontSize=14;fillColor=#FFFFFF;" vertex="1" parent="tXN5z0qdcC5efQAVFjsk-1">
          <mxGeometry x="185" y="590" width="110" height="30" as="geometry" />
        </mxCell>
        <mxCell id="fyftXfI4LWQmyPdiKRK2-44" style="edgeStyle=orthogonalEdgeStyle;rounded=0;orthogonalLoop=1;jettySize=auto;html=1;entryX=1;entryY=0.25;entryDx=0;entryDy=0;fontSize=12;" edge="1" parent="tXN5z0qdcC5efQAVFjsk-1" source="fyftXfI4LWQmyPdiKRK2-42" target="fyftXfI4LWQmyPdiKRK2-8">
          <mxGeometry relative="1" as="geometry">
            <Array as="points">
              <mxPoint x="590" y="605" />
              <mxPoint x="590" y="298" />
            </Array>
          </mxGeometry>
        </mxCell>
        <mxCell id="fyftXfI4LWQmyPdiKRK2-42" value="&lt;font style=&quot;font-size: 12px&quot;&gt;Memunculkan Objek 3D&lt;/font&gt;" style="rounded=1;whiteSpace=wrap;html=1;fontSize=14;fillColor=#FFFFFF;" vertex="1" parent="tXN5z0qdcC5efQAVFjsk-1">
          <mxGeometry x="440" y="590" width="135" height="30" as="geometry" />
        </mxCell>
        <mxCell id="fyftXfI4LWQmyPdiKRK2-49" style="edgeStyle=orthogonalEdgeStyle;rounded=0;orthogonalLoop=1;jettySize=auto;html=1;exitX=0.5;exitY=1;exitDx=0;exitDy=0;entryX=0.5;entryY=0;entryDx=0;entryDy=0;fontSize=12;" edge="1" parent="tXN5z0qdcC5efQAVFjsk-1" source="fyftXfI4LWQmyPdiKRK2-47" target="fyftXfI4LWQmyPdiKRK2-48">
          <mxGeometry relative="1" as="geometry" />
        </mxCell>
        <mxCell id="fyftXfI4LWQmyPdiKRK2-51" style="edgeStyle=orthogonalEdgeStyle;rounded=0;orthogonalLoop=1;jettySize=auto;html=1;fontSize=12;" edge="1" parent="tXN5z0qdcC5efQAVFjsk-1" source="fyftXfI4LWQmyPdiKRK2-47" target="fyftXfI4LWQmyPdiKRK2-50">
          <mxGeometry relative="1" as="geometry" />
        </mxCell>
        <mxCell id="fyftXfI4LWQmyPdiKRK2-47" value="&lt;span style=&quot;font-size: 12px&quot;&gt;Tombol Petunjuk&lt;/span&gt;" style="rounded=1;whiteSpace=wrap;html=1;fontSize=14;fillColor=#FFFFFF;" vertex="1" parent="tXN5z0qdcC5efQAVFjsk-1">
          <mxGeometry x="185" y="640" width="110" height="30" as="geometry" />
        </mxCell>
        <mxCell id="fyftXfI4LWQmyPdiKRK2-56" style="edgeStyle=orthogonalEdgeStyle;rounded=0;orthogonalLoop=1;jettySize=auto;html=1;fontSize=12;" edge="1" parent="tXN5z0qdcC5efQAVFjsk-1" source="fyftXfI4LWQmyPdiKRK2-48" target="fyftXfI4LWQmyPdiKRK2-54">
          <mxGeometry relative="1" as="geometry" />
        </mxCell>
        <mxCell id="fyftXfI4LWQmyPdiKRK2-48" value="&lt;span style=&quot;font-size: 12px&quot;&gt;Tombol Keluar&lt;/span&gt;" style="rounded=1;whiteSpace=wrap;html=1;fontSize=14;fillColor=#FFFFFF;" vertex="1" parent="tXN5z0qdcC5efQAVFjsk-1">
          <mxGeometry x="185" y="690" width="110" height="30" as="geometry" />
        </mxCell>
        <mxCell id="fyftXfI4LWQmyPdiKRK2-68" style="edgeStyle=orthogonalEdgeStyle;rounded=0;orthogonalLoop=1;jettySize=auto;html=1;exitX=1;exitY=0.5;exitDx=0;exitDy=0;entryX=0.25;entryY=1;entryDx=0;entryDy=0;fontSize=12;" edge="1" parent="tXN5z0qdcC5efQAVFjsk-1" source="fyftXfI4LWQmyPdiKRK2-50" target="fyftXfI4LWQmyPdiKRK2-67">
          <mxGeometry relative="1" as="geometry" />
        </mxCell>
        <mxCell id="fyftXfI4LWQmyPdiKRK2-50" value="&lt;font style=&quot;font-size: 12px&quot;&gt;Petunjuk Pemakaian&lt;/font&gt;" style="rounded=1;whiteSpace=wrap;html=1;fontSize=14;fillColor=#FFFFFF;" vertex="1" parent="tXN5z0qdcC5efQAVFjsk-1">
          <mxGeometry x="450" y="640" width="135" height="30" as="geometry" />
        </mxCell>
        <mxCell id="fyftXfI4LWQmyPdiKRK2-53" value="" style="ellipse;shape=doubleEllipse;whiteSpace=wrap;html=1;aspect=fixed;fontSize=12;fillColor=#030303;strokeColor=#FCFCFC;" vertex="1" parent="tXN5z0qdcC5efQAVFjsk-1">
          <mxGeometry x="700" y="685" width="40" height="40" as="geometry" />
        </mxCell>
        <mxCell id="fyftXfI4LWQmyPdiKRK2-55" style="edgeStyle=orthogonalEdgeStyle;rounded=0;orthogonalLoop=1;jettySize=auto;html=1;fontSize=12;" edge="1" parent="tXN5z0qdcC5efQAVFjsk-1" source="fyftXfI4LWQmyPdiKRK2-54" target="fyftXfI4LWQmyPdiKRK2-53">
          <mxGeometry relative="1" as="geometry" />
        </mxCell>
        <mxCell id="fyftXfI4LWQmyPdiKRK2-69" style="edgeStyle=orthogonalEdgeStyle;rounded=0;orthogonalLoop=1;jettySize=auto;html=1;exitX=0.5;exitY=0;exitDx=0;exitDy=0;entryX=0.674;entryY=1.069;entryDx=0;entryDy=0;fontSize=12;entryPerimeter=0;" edge="1" parent="tXN5z0qdcC5efQAVFjsk-1" source="fyftXfI4LWQmyPdiKRK2-54" target="fyftXfI4LWQmyPdiKRK2-67">
          <mxGeometry relative="1" as="geometry">
            <Array as="points">
              <mxPoint x="660" y="687" />
            </Array>
          </mxGeometry>
        </mxCell>
        <mxCell id="fyftXfI4LWQmyPdiKRK2-54" value="" style="rhombus;whiteSpace=wrap;html=1;fontSize=12;strokeColor=#0A0A0A;fillColor=#FFFFFF;" vertex="1" parent="tXN5z0qdcC5efQAVFjsk-1">
          <mxGeometry x="640" y="687.5" width="40" height="35" as="geometry" />
        </mxCell>
        <mxCell id="fyftXfI4LWQmyPdiKRK2-66" style="edgeStyle=orthogonalEdgeStyle;rounded=0;orthogonalLoop=1;jettySize=auto;html=1;entryX=0.5;entryY=0;entryDx=0;entryDy=0;fontSize=12;" edge="1" parent="tXN5z0qdcC5efQAVFjsk-1" source="fyftXfI4LWQmyPdiKRK2-59" target="fyftXfI4LWQmyPdiKRK2-22">
          <mxGeometry relative="1" as="geometry">
            <Array as="points">
              <mxPoint x="390" y="435" />
              <mxPoint x="390" y="350" />
              <mxPoint x="490" y="350" />
            </Array>
          </mxGeometry>
        </mxCell>
        <mxCell id="fyftXfI4LWQmyPdiKRK2-59" value="" style="rounded=0;whiteSpace=wrap;html=1;fontSize=12;strokeColor=#0A0A0A;fillColor=#000000;" vertex="1" parent="tXN5z0qdcC5efQAVFjsk-1">
          <mxGeometry x="330" y="330" width="10" height="210" as="geometry" />
        </mxCell>
        <mxCell id="fyftXfI4LWQmyPdiKRK2-70" style="edgeStyle=orthogonalEdgeStyle;rounded=0;orthogonalLoop=1;jettySize=auto;html=1;entryX=1;entryY=0.5;entryDx=0;entryDy=0;fontSize=12;" edge="1" parent="tXN5z0qdcC5efQAVFjsk-1" source="fyftXfI4LWQmyPdiKRK2-67" target="fyftXfI4LWQmyPdiKRK2-7">
          <mxGeometry relative="1" as="geometry">
            <Array as="points">
              <mxPoint x="650" y="255" />
            </Array>
          </mxGeometry>
        </mxCell>
        <mxCell id="fyftXfI4LWQmyPdiKRK2-67" value="" style="rounded=0;whiteSpace=wrap;html=1;fontSize=12;strokeColor=#0A0A0A;fillColor=#000000;" vertex="1" parent="tXN5z0qdcC5efQAVFjsk-1">
          <mxGeometry x="620" y="580" width="60" height="10" as="geometry" />
        </mxCell>
      </root>
    </mxGraphModel>
  </diagram>
</mxfile>
